<svg width="325" height="95" viewBox="0 0 325 95" fill="none" xmlns="http://www.w3.org/2000/svg">
<path style="mix-blend-mode:multiply" d="M77.0036 40.6624V58.3964L40.8345 95V76.7168L77.0036 40.6624Z" fill="url(#paint0_linear_25_197)"/>
<path style="mix-blend-mode:multiply" d="M0 35.9892V63.8422L29.1383 93.4268V65.0338L0 35.9892Z" fill="url(#paint1_linear_25_197)"/>
<path d="M48.4334 33.6154L29.1103 52.9412L12.3295 36.1661L42.3431 6.16267L39.7822 3.60265L7.20773 36.1661L29.1103 58.0612L48.4334 38.7447L49.4764 39.7781L29.1103 60.1465L5.12178 36.1661L38.7393 2.56002L36.1784 0L0 36.1661L29.1103 65.2665L54.5981 39.7874L48.4334 33.6154Z" fill="#35B6C8"/>
<path d="M47.856 11.5992L22.3868 37.0598L28.5516 43.2224L47.856 23.9245L64.6368 40.6997L34.6232 70.6938L37.1841 73.2538L69.7586 40.6997L47.856 18.8045L28.5516 38.1024L27.5086 37.0598L47.856 16.7193L71.8445 40.6997L38.2271 74.2964L40.788 76.8564L76.9663 40.6997L47.856 11.5992Z" fill="#1B262C"/>
<path d="M90.5251 26.9593V42.5987C90.5251 44.4978 91.1583 45.6614 91.7171 46.2945C92.4248 47.1509 93.7378 48.0073 95.6748 48.0073C97.6117 48.0073 98.9248 47.1509 99.6325 46.2945C100.191 45.6614 100.825 44.5071 100.825 42.5987V26.9593H105.676V42.1891C105.676 44.5443 105.304 46.9275 103.814 48.8359C102.026 51.1911 98.8875 52.4199 95.6748 52.4199C92.462 52.4199 89.3238 51.1911 87.5358 48.8359C86.0458 46.9368 85.6734 44.5443 85.6734 42.1891V26.9593H90.5251Z" fill="#1B262C"/>
<path d="M115.249 35.7006V37.7952C116.106 36.6036 117.643 35.1793 120.25 35.1793C121.665 35.1793 123.761 35.5889 125.027 37.1529C126.145 38.5306 126.294 40.1411 126.294 41.7051V51.8614H121.74V43.0549C121.74 42.1612 121.703 40.7369 120.883 39.8805C120.175 39.1357 119.207 39.0613 118.751 39.0613C117.559 39.0613 116.618 39.4709 115.948 40.4762C115.277 41.5189 115.24 42.6825 115.24 43.6134V51.8614H110.686V35.7006H115.249Z" fill="#1B262C"/>
<path d="M143.028 24.6506H147.582V51.8613H143.028V49.7668C141.389 52.122 139.219 52.3826 138.064 52.3826C133.101 52.3826 129.814 48.5007 129.814 43.7624C129.814 39.024 133.064 35.1793 137.841 35.1793C139.07 35.1793 141.501 35.4027 143.028 37.7952V24.6506ZM134.516 43.7624C134.516 46.341 136.379 48.3518 138.996 48.3518C141.612 48.3518 143.475 46.3317 143.475 43.7624C143.475 41.193 141.612 39.2102 138.996 39.2102C136.379 39.2102 134.516 41.1837 134.516 43.7624Z" fill="#1B262C"/>
<path d="M167.789 47.3464C167.305 48.538 165.471 52.3827 159.837 52.3827C157.22 52.3827 155.246 51.6379 153.635 50.1019C151.837 48.4263 151.092 46.3317 151.092 43.7903C151.092 40.5786 152.396 38.6051 153.56 37.4415C155.469 35.5796 157.704 35.1607 159.65 35.1607C162.938 35.1607 164.837 36.464 165.964 37.8138C167.678 39.8711 167.901 42.4032 167.901 44.1627V44.535H155.804C155.804 45.5032 156.065 46.5551 156.587 47.2626C157.071 47.9329 158.077 48.7893 159.837 48.7893C161.597 48.7893 162.863 47.9701 163.608 46.6575L167.789 47.3278V47.3464ZM163.608 41.6399C163.236 39.4336 161.438 38.391 159.762 38.391C158.086 38.391 156.326 39.4708 155.953 41.6399H163.608Z" fill="#1B262C"/>
<path d="M176.04 39.5826V51.8613H171.486V39.5826H169.773V35.7006H171.486V31.6698C171.486 29.9941 171.449 28.5698 172.678 26.8942C173.87 25.293 176.04 24.2038 179.141 24.2038C181.199 24.2038 184.179 24.6507 185.678 26.8942C186.908 28.7188 186.796 30.4782 186.796 31.6698V32.7496H182.242V31.7815C182.242 31.0368 182.205 30.2548 181.758 29.538C181.05 28.4209 179.933 28.3092 179.141 28.3092C178.433 28.3092 177.269 28.4209 176.562 29.538C176.152 30.171 176.04 31.0647 176.04 31.7815V35.7006H180.221V39.5826H176.04ZM186.796 35.7006V51.8613H182.242V35.7006H186.796Z" fill="#1B262C"/>
<path d="M195.68 35.7006V37.7952C196.537 36.6036 198.073 35.1793 200.681 35.1793C202.096 35.1793 204.191 35.5889 205.458 37.1529C206.575 38.5306 206.724 40.1411 206.724 41.7051V51.8614H202.17V43.0549C202.17 42.1612 202.133 40.7369 201.314 39.8805C200.606 39.1357 199.638 39.0613 199.181 39.0613C197.989 39.0613 197.049 39.4709 196.378 40.4762C195.708 41.5189 195.67 42.6825 195.67 43.6134V51.8614H191.117V35.7006H195.68Z" fill="#1B262C"/>
<path d="M226.932 47.3464C226.448 48.538 224.613 52.3827 218.979 52.3827C216.362 52.3827 214.388 51.6379 212.777 50.1019C210.98 48.4263 210.235 46.3317 210.235 43.7903C210.235 40.5786 211.539 38.6051 212.703 37.4415C214.612 35.5796 216.847 35.1607 218.793 35.1607C222.08 35.1607 223.98 36.464 225.107 37.8138C226.82 39.8711 227.044 42.4032 227.044 44.1627V44.535H214.947C214.947 45.5032 215.208 46.5551 215.729 47.2626C216.213 47.9329 217.219 48.7893 218.979 48.7893C220.739 48.7893 222.006 47.9701 222.751 46.6575L226.932 47.3278V47.3464ZM222.751 41.6399C222.378 39.4336 220.581 38.391 218.905 38.391C217.229 38.391 215.468 39.4708 215.096 41.6399H222.751Z" fill="#1B262C"/>
<path d="M242.949 24.6506H247.503V51.8613H242.949V49.7668C241.31 52.122 239.14 52.3826 237.986 52.3826C233.022 52.3826 229.735 48.5007 229.735 43.7624C229.735 39.024 232.985 35.1793 237.762 35.1793C238.991 35.1793 241.422 35.4027 242.949 37.7952V24.6506ZM234.438 43.7624C234.438 46.341 236.3 48.3518 238.917 48.3518C241.534 48.3518 243.396 46.3317 243.396 43.7624C243.396 41.193 241.534 39.2102 238.917 39.2102C236.3 39.2102 234.438 41.1837 234.438 43.7624Z" fill="#1B262C"/>
<path d="M264.759 32.6379C263.306 30.7016 261.583 30.5061 260.689 30.5061C258.072 30.5061 257.253 32.1445 257.253 33.4199C257.253 34.0157 257.439 34.5742 258.035 35.0955C258.631 35.6541 259.451 35.952 261.024 36.5105C262.961 37.1808 264.796 37.851 266.062 39.0147C267.18 40.0201 268.195 41.705 268.195 44.2371C268.195 49.0872 264.684 52.4106 259.534 52.4106C254.943 52.4106 252.252 49.6085 250.948 47.7095L254.124 44.684C255.316 47.1137 257.597 48.0073 259.348 48.0073C261.555 48.0073 263.194 46.6668 263.194 44.5723C263.194 43.6786 262.896 42.9711 262.226 42.3288C261.294 41.4723 259.795 40.9882 258.38 40.5042C257.076 40.0573 255.502 39.4615 254.236 38.3351C253.416 37.6276 252.252 36.2406 252.252 33.7085C252.252 30.05 254.72 26.3915 260.242 26.3915C261.807 26.3915 264.759 26.6894 267.301 29.3052L264.759 32.6286V32.6379Z" fill="#35B6C8"/>
<path d="M276.334 24.6506V37.7952C277.191 36.6036 278.727 35.1793 281.335 35.1793C282.75 35.1793 284.845 35.5889 286.112 37.1528C287.229 38.5306 287.378 40.1411 287.378 41.705V51.8613H282.824V43.0549C282.824 42.1612 282.787 40.7369 281.968 39.8804C281.26 39.1357 280.292 39.0612 279.835 39.0612C278.643 39.0612 277.703 39.4708 277.032 40.4762C276.362 41.5188 276.324 42.6825 276.324 43.6134V51.8613H271.771V24.6506H276.334Z" fill="#35B6C8"/>
<path d="M307.176 47.3464C306.692 48.538 304.857 52.3826 299.223 52.3826C296.607 52.3826 294.633 51.6379 293.021 50.1019C291.234 48.4262 290.479 46.3317 290.479 43.7903C290.479 40.5786 291.783 38.6051 292.947 37.4414C294.856 35.5796 297.091 35.1607 299.037 35.1607C302.324 35.1607 304.224 36.464 305.351 37.8138C307.064 39.8711 307.288 42.4032 307.288 44.1626V44.535H295.191C295.191 45.5032 295.452 46.5551 295.973 47.2626C296.458 47.9329 297.463 48.7893 299.223 48.7893C300.984 48.7893 302.25 47.9701 302.995 46.6575L307.176 47.3278V47.3464ZM302.995 41.6399C302.622 39.4336 300.825 38.391 299.149 38.391C297.473 38.391 295.713 39.4708 295.34 41.6399H302.995Z" fill="#35B6C8"/>
<path d="M315.352 24.6506V51.8613H310.799V24.6506H315.352Z" fill="#35B6C8"/>
<path d="M324.246 24.6506V51.8613H319.692V24.6506H324.246Z" fill="#35B6C8"/>
<path d="M85.806 59.731V67.9794H86.7214V64.3931H87.5255C89.4059 64.3931 90.1357 63.243 90.1357 62.0806C90.1357 61.5612 89.9873 60.8316 89.3811 60.3122C88.8244 59.8299 88.1317 59.731 87.3028 59.731H85.806ZM86.7214 60.5966H87.4018C87.9956 60.5966 89.2203 60.7203 89.2203 62.0311C89.2203 62.9833 88.5646 63.5274 87.476 63.5274H86.7214V60.5966Z" fill="#1B262C"/>
<path d="M94.3795 67.9794H95.2702V65.2711C95.2702 64.4302 95.4187 64.0839 95.5671 63.8861C95.7032 63.7129 95.9259 63.5645 96.2846 63.5645C96.4207 63.5645 96.6062 63.6016 96.8042 63.7377L97.2248 62.9339C97.0021 62.8226 96.7052 62.7236 96.433 62.7236C95.7403 62.7236 95.3568 63.2678 95.2702 63.4038V62.8473H94.3795V67.9794Z" fill="#1B262C"/>
<path d="M103.292 68.1278C104.851 68.1278 106.014 66.9901 106.014 65.4319C106.014 63.8737 104.863 62.7236 103.292 62.7236C101.721 62.7236 100.571 63.8737 100.571 65.4319C100.571 66.9901 101.734 68.1278 103.292 68.1278ZM103.292 63.5151C104.233 63.5151 105.098 64.1705 105.098 65.4319C105.098 66.6809 104.22 67.3363 103.292 67.3363C102.377 67.3363 101.486 66.6933 101.486 65.4319C101.486 64.1829 102.352 63.5151 103.292 63.5151Z" fill="#1B262C"/>
<path d="M114.468 63.5769C114.06 63.0452 113.466 62.7236 112.712 62.7236C112.019 62.7236 111.388 62.9957 110.955 63.4162C110.584 63.7871 110.213 64.4055 110.213 65.4071C110.213 66.4459 110.609 67.089 110.955 67.4352C111.351 67.831 111.957 68.1278 112.712 68.1278C113.615 68.1278 114.171 67.6455 114.468 67.2621V68.0041C114.468 68.4369 114.443 68.8945 114.184 69.3149C113.887 69.8096 113.454 70.0322 112.823 70.0322C112.427 70.0322 111.957 69.9456 111.586 69.5375C111.363 69.2902 111.19 68.9068 111.19 68.474H110.312C110.312 69.2284 110.633 69.7849 110.98 70.1311C111.326 70.4774 111.932 70.8236 112.811 70.8236C113.775 70.8236 114.481 70.3908 114.864 69.8714C115.359 69.2036 115.359 68.4122 115.359 67.8557V62.8473H114.468V63.5769ZM112.811 63.5151C113.268 63.5151 113.689 63.6882 113.973 63.9726C114.295 64.2818 114.518 64.8136 114.518 65.4195C114.518 66.0255 114.283 66.5696 113.936 66.9035C113.652 67.1879 113.281 67.3363 112.811 67.3363C112.34 67.3363 111.994 67.1755 111.71 66.9159C111.215 66.4583 111.128 65.8523 111.128 65.4071C111.128 64.9867 111.215 64.4426 111.648 63.9974C111.895 63.75 112.266 63.5151 112.811 63.5151Z" fill="#1B262C"/>
<path d="M120.2 67.9794H121.091V65.2711C121.091 64.4302 121.239 64.0839 121.388 63.8861C121.524 63.7129 121.747 63.5645 122.105 63.5645C122.241 63.5645 122.427 63.6016 122.625 63.7377L123.046 62.9339C122.823 62.8226 122.526 62.7236 122.254 62.7236C121.561 62.7236 121.178 63.2678 121.091 63.4038V62.8473H120.2V67.9794Z" fill="#1B262C"/>
<path d="M130.683 63.5769C130.448 63.2678 129.916 62.7236 128.927 62.7236C127.615 62.7236 126.428 63.6387 126.428 65.4071C126.428 67.2126 127.628 68.1278 128.927 68.1278C129.83 68.1278 130.386 67.6455 130.683 67.2621V67.9794H131.574V62.8473H130.683V63.5769ZM129.026 63.5151C129.817 63.5151 130.733 64.0963 130.733 65.4195C130.733 66.4336 130.114 67.3363 129.026 67.3363C127.962 67.3363 127.343 66.5078 127.343 65.4071C127.343 64.1581 128.147 63.5151 129.026 63.5151Z" fill="#1B262C"/>
<path d="M136.415 67.9794H137.306V65.1846C137.306 64.5662 137.418 63.5151 138.432 63.5151C139.372 63.5151 139.36 64.5786 139.36 64.9372V67.9794H140.25V65.1227C140.25 64.5044 140.362 63.5151 141.388 63.5151C142.23 63.5151 142.304 64.2818 142.304 64.863V67.9794H143.195V64.727C143.195 63.9974 143.046 62.7236 141.525 62.7236C141.178 62.7236 140.473 62.7731 139.978 63.5522C139.879 63.3791 139.508 62.7236 138.58 62.7236C138.036 62.7236 137.591 62.971 137.306 63.3914V62.8473H136.415V67.9794Z" fill="#1B262C"/>
<path d="M151.972 63.5769C151.737 63.2678 151.205 62.7236 150.216 62.7236C148.905 62.7236 147.717 63.6387 147.717 65.4071C147.717 67.2126 148.917 68.1278 150.216 68.1278C151.119 68.1278 151.676 67.6455 151.972 67.2621V67.9794H152.863V62.8473H151.972V63.5769ZM150.315 63.5151C151.106 63.5151 152.022 64.0963 152.022 65.4195C152.022 66.4336 151.403 67.3363 150.315 67.3363C149.251 67.3363 148.632 66.5078 148.632 65.4071C148.632 64.1581 149.436 63.5151 150.315 63.5151Z" fill="#1B262C"/>
<path d="M161.725 63.2183C161.478 63.0452 160.946 62.7236 160.129 62.7236C158.546 62.7236 157.383 63.8737 157.383 65.4442C157.383 66.9901 158.533 68.1278 160.129 68.1278C160.612 68.1278 161.205 68.0041 161.762 67.596V66.5325C161.292 67.1013 160.636 67.3363 160.104 67.3363C159.189 67.3363 158.298 66.6809 158.298 65.4319C158.298 64.1829 159.164 63.5151 160.117 63.5151C160.575 63.5151 161.255 63.6882 161.725 64.2818V63.2183Z" fill="#1B262C"/>
<path d="M166.283 62.8473V67.9794H167.174V62.8473H166.283ZM166.098 60.9058C166.098 61.252 166.382 61.5365 166.729 61.5365C167.075 61.5365 167.36 61.252 167.36 60.9058C167.36 60.5595 167.075 60.2751 166.729 60.2751C166.382 60.2751 166.098 60.5595 166.098 60.9058Z" fill="#1B262C"/>
<path d="M174.411 68.1278C175.97 68.1278 177.132 66.9901 177.132 65.4319C177.132 63.8737 175.982 62.7236 174.411 62.7236C172.84 62.7236 171.689 63.8737 171.689 65.4319C171.689 66.9901 172.852 68.1278 174.411 68.1278ZM174.411 63.5151C175.351 63.5151 176.217 64.1705 176.217 65.4319C176.217 66.6809 175.339 67.3363 174.411 67.3363C173.495 67.3363 172.605 66.6933 172.605 65.4319C172.605 64.1829 173.471 63.5151 174.411 63.5151ZM175.178 59.7433L173.879 61.5365L174.436 61.8332L176.093 60.1638L175.178 59.7433Z" fill="#1B262C"/>
<path d="M181.653 67.9794H182.544V65.2958C182.544 64.9249 182.568 64.3189 182.915 63.9108C183.174 63.6016 183.508 63.5151 183.818 63.5151C184.214 63.5151 184.486 63.6635 184.659 63.8861C184.869 64.1581 184.894 64.5168 184.894 64.8259V67.9794H185.785V64.8012C185.785 64.2323 185.748 63.8119 185.488 63.4285C185.178 62.971 184.622 62.7236 184.016 62.7236C183.162 62.7236 182.704 63.2307 182.544 63.4409V62.8473H181.653V67.9794Z" fill="#1B262C"/>
<path d="M196.648 70.8236H197.637L201.41 62.8473H200.421L198.751 66.5201L196.932 62.8473H195.918L198.281 67.4971L196.648 70.8236Z" fill="#1B262C"/>
<path d="M215.48 63.5769C215.245 63.2678 214.713 62.7236 213.724 62.7236C212.412 62.7236 211.225 63.6387 211.225 65.4071C211.225 67.2126 212.425 68.1278 213.724 68.1278C214.627 68.1278 215.183 67.6455 215.48 67.2621V67.9794H216.371V58.9642H215.48V63.5769ZM213.822 63.5151C214.614 63.5151 215.53 64.0963 215.53 65.4195C215.53 66.4336 214.911 67.3363 213.822 67.3363C212.759 67.3363 212.14 66.5078 212.14 65.4071C212.14 64.1581 212.944 63.5151 213.822 63.5151Z" fill="#1B262C"/>
<path d="M225.022 66.2604C224.911 66.5078 224.726 66.7675 224.49 66.9653C224.194 67.2126 223.86 67.3363 223.439 67.3363C222.548 67.3363 221.818 66.6562 221.806 65.5926H225.802C225.827 64.9125 225.641 64.121 225.319 63.6635C225.01 63.2183 224.379 62.7236 223.377 62.7236C221.831 62.7236 220.891 63.9108 220.891 65.4442C220.891 67.3487 222.19 68.1278 223.427 68.1278C224.082 68.1278 224.664 67.9175 225.134 67.4971C225.394 67.2621 225.616 66.953 225.765 66.6685L225.022 66.2604ZM221.868 64.8507C222.004 64.0839 222.623 63.5151 223.377 63.5151C224.132 63.5151 224.738 64.0468 224.886 64.8507H221.868Z" fill="#1B262C"/>
<path d="M233.168 63.6511C232.76 62.7731 232.03 62.7236 231.758 62.7236C230.892 62.7236 230.261 63.2554 230.261 64.1581C230.261 64.4178 230.298 64.6652 230.496 64.9125C230.731 65.1969 231.127 65.3948 231.745 65.6668C232.228 65.8771 232.574 66.0378 232.574 66.5201C232.574 66.9035 232.314 67.3363 231.733 67.3363C231.09 67.3363 230.793 66.7675 230.694 66.4954L229.927 66.8169C230.36 68.103 231.51 68.1278 231.72 68.1278C232.71 68.1278 233.489 67.5218 233.489 66.4459C233.489 66.1615 233.44 65.8894 233.217 65.6174C233.019 65.37 232.673 65.1351 231.931 64.8259C231.349 64.5786 231.102 64.4673 231.102 64.0963C231.102 63.7006 231.399 63.5151 231.72 63.5151C232.054 63.5151 232.314 63.7377 232.438 64.0345L233.168 63.6511Z" fill="#1B262C"/>
<path d="M241.76 63.5769C241.525 63.2678 240.993 62.7236 240.003 62.7236C238.692 62.7236 237.505 63.6387 237.505 65.4071C237.505 67.2126 238.704 68.1278 240.003 68.1278C240.906 68.1278 241.463 67.6455 241.76 67.2621V67.9794H242.651V62.8473H241.76V63.5769ZM240.102 63.5151C240.894 63.5151 241.809 64.0963 241.809 65.4195C241.809 66.4336 241.191 67.3363 240.102 67.3363C239.038 67.3363 238.42 66.5078 238.42 65.4071C238.42 64.1581 239.224 63.5151 240.102 63.5151Z" fill="#1B262C"/>
<path d="M247.492 67.9794H248.383V65.2711C248.383 64.4302 248.531 64.0839 248.68 63.8861C248.816 63.7129 249.038 63.5645 249.397 63.5645C249.533 63.5645 249.719 63.6016 249.917 63.7377L250.337 62.9339C250.115 62.8226 249.818 62.7236 249.546 62.7236C248.853 62.7236 248.469 63.2678 248.383 63.4038V62.8473H247.492V67.9794Z" fill="#1B262C"/>
<path d="M254.307 67.9794H255.198V65.2711C255.198 64.4302 255.346 64.0839 255.495 63.8861C255.631 63.7129 255.853 63.5645 256.212 63.5645C256.348 63.5645 256.534 63.6016 256.732 63.7377L257.152 62.9339C256.93 62.8226 256.633 62.7236 256.361 62.7236C255.668 62.7236 255.284 63.2678 255.198 63.4038V62.8473H254.307V67.9794Z" fill="#1B262C"/>
<path d="M263.22 68.1278C264.779 68.1278 265.941 66.9901 265.941 65.4319C265.941 63.8737 264.791 62.7236 263.22 62.7236C261.649 62.7236 260.498 63.8737 260.498 65.4319C260.498 66.9901 261.661 68.1278 263.22 68.1278ZM263.22 63.5151C264.16 63.5151 265.026 64.1705 265.026 65.4319C265.026 66.6809 264.148 67.3363 263.22 67.3363C262.305 67.3363 261.414 66.6933 261.414 65.4319C261.414 64.1829 262.28 63.5151 263.22 63.5151Z" fill="#1B262C"/>
<path d="M270.462 58.9642V67.9794H271.353V58.9642H270.462Z" fill="#1B262C"/>
<path d="M276.19 58.9642V67.9794H277.08V58.9642H276.19Z" fill="#1B262C"/>
<path d="M284.317 68.1278C285.876 68.1278 287.039 66.9901 287.039 65.4319C287.039 63.8737 285.888 62.7236 284.317 62.7236C282.746 62.7236 281.596 63.8737 281.596 65.4319C281.596 66.9901 282.758 68.1278 284.317 68.1278ZM284.317 63.5151C285.257 63.5151 286.123 64.1705 286.123 65.4319C286.123 66.6809 285.245 67.3363 284.317 67.3363C283.402 67.3363 282.511 66.6933 282.511 65.4319C282.511 64.1829 283.377 63.5151 284.317 63.5151Z" fill="#1B262C"/>
<path d="M296.859 62.8473L299.382 68.338L300.966 64.5044L302.549 68.338L305.098 62.8473H304.108L302.574 66.3346L300.978 62.4516L299.37 66.3346L297.848 62.8473H296.859Z" fill="#1B262C"/>
<path d="M312.998 66.2604C312.887 66.5078 312.701 66.7675 312.466 66.9653C312.169 67.2126 311.835 67.3363 311.414 67.3363C310.524 67.3363 309.794 66.6562 309.782 65.5926H313.777C313.802 64.9125 313.616 64.121 313.295 63.6635C312.986 63.2183 312.355 62.7236 311.353 62.7236C309.806 62.7236 308.866 63.9108 308.866 65.4442C308.866 67.3487 310.165 68.1278 311.402 68.1278C312.058 68.1278 312.639 67.9175 313.109 67.4971C313.369 67.2621 313.592 66.953 313.74 66.6685L312.998 66.2604ZM309.843 64.8507C309.979 64.0839 310.598 63.5151 311.353 63.5151C312.107 63.5151 312.713 64.0468 312.862 64.8507H309.843Z" fill="#1B262C"/>
<path d="M319.189 67.2621C319.572 67.7568 320.154 68.1278 320.982 68.1278C322.541 68.1278 323.444 66.854 323.444 65.4442C323.444 64.0592 322.554 62.7236 320.945 62.7236C320.574 62.7236 319.795 62.8102 319.189 63.5645V58.9642H318.298V67.9794H319.189V67.2621ZM320.859 67.3363C319.807 67.3363 319.139 66.483 319.139 65.4319C319.139 64.1952 320.018 63.5151 320.846 63.5151C321.675 63.5151 322.529 64.1829 322.529 65.4442C322.529 66.4707 321.898 67.3363 320.859 67.3363Z" fill="#1B262C"/>
<defs>
<linearGradient id="paint0_linear_25_197" x1="51.9162" y1="60.5375" x2="66.7548" y2="76.005" gradientUnits="userSpaceOnUse">
<stop offset="0.08" stop-color="#1B262C"/>
<stop offset="0.3" stop-color="#1B262C" stop-opacity="0.49"/>
<stop offset="0.52" stop-color="#1B262C" stop-opacity="0.13"/>
<stop offset="0.7" stop-color="#1B262C" stop-opacity="0"/>
</linearGradient>
<linearGradient id="paint1_linear_25_197" x1="25.702" y1="53.1088" x2="3.44411" y2="76.3148" gradientUnits="userSpaceOnUse">
<stop stop-color="#2C9FAF"/>
<stop offset="0.11" stop-color="#2C9FAF" stop-opacity="0.75"/>
<stop offset="0.25" stop-color="#2C9FAF" stop-opacity="0.48"/>
<stop offset="0.38" stop-color="#2C9FAF" stop-opacity="0.27"/>
<stop offset="0.5" stop-color="#2C9FAF" stop-opacity="0.12"/>
<stop offset="0.61" stop-color="#2C9FAF" stop-opacity="0.03"/>
<stop offset="0.7" stop-color="#2C9FAF" stop-opacity="0"/>
</linearGradient>
</defs>
</svg>
